<mxfile host="app.diagrams.net" agent="Mozilla/5.0 (Windows NT 10.0; Win64; x64) AppleWebKit/537.36 (KHTML, like Gecko) Chrome/137.0.0.0 Safari/537.36" version="27.1.6">
  <diagram name="페이지-1" id="LvskHL0l8MYuoYU3aJJq">
    <mxGraphModel dx="938" dy="545" grid="1" gridSize="10" guides="1" tooltips="1" connect="1" arrows="1" fold="1" page="1" pageScale="1" pageWidth="827" pageHeight="1169" background="#FFB3ED" math="0" shadow="1">
      <root>
        <mxCell id="0" />
        <mxCell id="1" parent="0" />
        <mxCell id="G79Pr9Nb0tBNP9RUXyT_-3" value="&lt;h3&gt;&lt;font&gt;로그인&lt;br&gt;&lt;/font&gt;회원가입&lt;/h3&gt;&lt;div&gt;&lt;br&gt;&lt;/div&gt;&lt;div&gt;1. 자체 회원가입(Spring security)&lt;/div&gt;&lt;div&gt;2. 소셜 로그인&lt;/div&gt;&lt;div&gt;3.자체 로그인&lt;/div&gt;" style="rounded=1;whiteSpace=wrap;html=1;" parent="1" vertex="1">
          <mxGeometry x="235" y="130" width="160" height="160" as="geometry" />
        </mxCell>
        <mxCell id="G79Pr9Nb0tBNP9RUXyT_-9" value="&lt;h3&gt;&lt;font&gt;검색기능&lt;/font&gt;&lt;/h3&gt;&lt;div&gt;- 영화/배우/감독/유저 통합 검색&lt;/div&gt;&lt;div&gt;-최근 검색어 저장&lt;/div&gt;&lt;div&gt;-추천 검색어 노출&lt;/div&gt;" style="rounded=1;whiteSpace=wrap;html=1;" parent="1" vertex="1">
          <mxGeometry x="50" y="290" width="180" height="110" as="geometry" />
        </mxCell>
        <mxCell id="G79Pr9Nb0tBNP9RUXyT_-10" value="&lt;h3&gt;&lt;font&gt;좋아요&lt;/font&gt;&lt;/h3&gt;&lt;div&gt;영화, 댓글에 좋아요 토글&lt;/div&gt;" style="rounded=1;whiteSpace=wrap;html=1;" parent="1" vertex="1">
          <mxGeometry x="225" y="580" width="170" height="90" as="geometry" />
        </mxCell>
        <mxCell id="G79Pr9Nb0tBNP9RUXyT_-11" value="&lt;h3&gt;&lt;font&gt;별점&lt;/font&gt;&lt;/h3&gt;&lt;div&gt;별점 저장/수정&lt;/div&gt;&lt;div&gt;별점 기반 정렬&lt;/div&gt;" style="rounded=1;whiteSpace=wrap;html=1;" parent="1" vertex="1">
          <mxGeometry x="60" y="470" width="150" height="100" as="geometry" />
        </mxCell>
        <mxCell id="G79Pr9Nb0tBNP9RUXyT_-12" value="&lt;h3&gt;&lt;font&gt;추천 시스템&lt;/font&gt;&lt;/h3&gt;&lt;div&gt;-장르 기반 추천&lt;/div&gt;&lt;div&gt;-평균 별점 높은 영화&lt;/div&gt;&lt;div&gt;-배우/감독 기반 추천&lt;/div&gt;&lt;div&gt;&lt;font&gt;-태그 기반 추천&lt;/font&gt;&lt;/div&gt;&lt;div&gt;-탑10&lt;/div&gt;" style="rounded=1;whiteSpace=wrap;html=1;" parent="1" vertex="1">
          <mxGeometry x="70" y="710" width="140" height="150" as="geometry" />
        </mxCell>
        <mxCell id="G79Pr9Nb0tBNP9RUXyT_-13" value="&lt;h3&gt;&lt;font&gt;클린봇&lt;/font&gt;&lt;/h3&gt;&lt;div&gt;-욕설 탐지&lt;/div&gt;&lt;div&gt;-외부 라이브러리 연동&lt;/div&gt;" style="rounded=1;whiteSpace=wrap;html=1;" parent="1" vertex="1">
          <mxGeometry x="240" y="760" width="150" height="110" as="geometry" />
        </mxCell>
        <mxCell id="G79Pr9Nb0tBNP9RUXyT_-14" value="&lt;h1&gt;메인&lt;/h1&gt;" style="rounded=1;whiteSpace=wrap;html=1;strokeWidth=2;fillWeight=4;hachureGap=8;hachureAngle=45;fillColor=#1ba1e2;sketch=1;" parent="1" vertex="1">
          <mxGeometry x="450" y="400" width="170" height="160" as="geometry" />
        </mxCell>
        <mxCell id="G79Pr9Nb0tBNP9RUXyT_-15" value="" style="endArrow=classic;html=1;rounded=0;exitX=0.041;exitY=0.134;exitDx=0;exitDy=0;exitPerimeter=0;" parent="1" source="G79Pr9Nb0tBNP9RUXyT_-14" edge="1">
          <mxGeometry width="50" height="50" relative="1" as="geometry">
            <mxPoint x="330" y="340" as="sourcePoint" />
            <mxPoint x="380" y="290" as="targetPoint" />
          </mxGeometry>
        </mxCell>
        <mxCell id="G79Pr9Nb0tBNP9RUXyT_-16" value="" style="endArrow=classic;html=1;rounded=0;entryX=1.02;entryY=0.636;entryDx=0;entryDy=0;entryPerimeter=0;exitX=0.018;exitY=0.342;exitDx=0;exitDy=0;exitPerimeter=0;" parent="1" source="G79Pr9Nb0tBNP9RUXyT_-14" target="G79Pr9Nb0tBNP9RUXyT_-9" edge="1">
          <mxGeometry width="50" height="50" relative="1" as="geometry">
            <mxPoint x="380" y="450" as="sourcePoint" />
            <mxPoint x="430" y="400" as="targetPoint" />
          </mxGeometry>
        </mxCell>
        <mxCell id="G79Pr9Nb0tBNP9RUXyT_-17" value="" style="rounded=1;whiteSpace=wrap;html=1;" parent="1" vertex="1">
          <mxGeometry x="640" y="240" width="120" height="60" as="geometry" />
        </mxCell>
      </root>
    </mxGraphModel>
  </diagram>
</mxfile>
